<svg xmlns="http://www.w3.org/2000/svg" width="48" height="48" viewBox="0 0 48 48"><defs><style>.a{fill:#fff;}</style></defs><path class="a" d="M48,24A24,24,0,1,0,7.79,41.68l-.023.02.778.656c.051.043.106.078.156.12.414.343.842.669,1.279.984.141.1.283.2.427.3q.7.482,1.433.915c.106.063.214.124.321.185.535.3,1.081.592,1.641.855l.124.056a23.784,23.784,0,0,0,5.8,1.837l.161.029c.632.109,1.271.2,1.917.255l.237.018c.644.053,1.3.087,1.955.087s1.3-.034,1.939-.086l.243-.018q.962-.088,1.9-.25l.163-.03a23.783,23.783,0,0,0,5.722-1.793c.066-.031.134-.059.2-.091q.808-.38,1.581-.817.192-.109.383-.221c.47-.277.931-.566,1.38-.873.161-.11.319-.226.479-.341.383-.276.759-.56,1.125-.858.081-.065.168-.122.248-.189l.8-.667-.024-.02A23.938,23.938,0,0,0,48,24ZM1.745,24A22.255,22.255,0,1,1,38.759,40.637a6.54,6.54,0,0,0-.779-.469L30.59,36.474a1.934,1.934,0,0,1-1.075-1.739V32.154c.171-.211.352-.45.538-.713a17.784,17.784,0,0,0,2.283-4.471,3.167,3.167,0,0,0,1.82-2.87V21.006a3.175,3.175,0,0,0-.774-2.067V14.865a7.038,7.038,0,0,0-1.643-5.118C30.13,7.911,27.527,6.982,24,6.982s-6.13.929-7.738,2.765a7.04,7.04,0,0,0-1.643,5.118v4.073A3.18,3.18,0,0,0,13.844,21V24.1a3.175,3.175,0,0,0,1.169,2.462,16.4,16.4,0,0,0,2.7,5.576v2.526A1.947,1.947,0,0,1,16.7,36.371L9.8,40.135a6.308,6.308,0,0,0-.656.415A22.2,22.2,0,0,1,1.745,24Z"/></svg>